<svg xmlns="http://www.w3.org/2000/svg" width="2600" height="1900" viewBox="0 0 2600 1900" role="img" aria-labelledby="diagram-title diagram-desc">
  <title id="diagram-title">Automatic City Services · общая архитектура</title>
  <desc id="diagram-desc">Синхронный HTTP/2 + gRPC контур, событийная интеграция Kafka, service-owned data и единая наблюдаемость</desc>
  <defs><marker id="arrow-http" markerWidth="10" markerHeight="10" refX="8" refY="3" orient="auto" markerUnits="strokeWidth"><path d="M0,0 L0,6 L9,3 z" fill="#111827"/></marker><marker id="arrow-grpc" markerWidth="10" markerHeight="10" refX="8" refY="3" orient="auto" markerUnits="strokeWidth"><path d="M0,0 L0,6 L9,3 z" fill="#334155"/></marker><marker id="arrow-kafka" markerWidth="10" markerHeight="10" refX="8" refY="3" orient="auto" markerUnits="strokeWidth"><path d="M0,0 L0,6 L9,3 z" fill="#7c3aed"/></marker><marker id="arrow-data" markerWidth="10" markerHeight="10" refX="8" refY="3" orient="auto" markerUnits="strokeWidth"><path d="M0,0 L0,6 L9,3 z" fill="#7c3aed"/></marker><marker id="arrow-object" markerWidth="10" markerHeight="10" refX="8" refY="3" orient="auto" markerUnits="strokeWidth"><path d="M0,0 L0,6 L9,3 z" fill="#2563eb"/></marker><marker id="arrow-analytics" markerWidth="10" markerHeight="10" refX="8" refY="3" orient="auto" markerUnits="strokeWidth"><path d="M0,0 L0,6 L9,3 z" fill="#059669"/></marker><marker id="arrow-cache" markerWidth="10" markerHeight="10" refX="8" refY="3" orient="auto" markerUnits="strokeWidth"><path d="M0,0 L0,6 L9,3 z" fill="#d97706"/></marker><marker id="arrow-route" markerWidth="10" markerHeight="10" refX="8" refY="3" orient="auto" markerUnits="strokeWidth"><path d="M0,0 L0,6 L9,3 z" fill="#dc2626"/></marker><marker id="arrow-telemetry" markerWidth="10" markerHeight="10" refX="8" refY="3" orient="auto" markerUnits="strokeWidth"><path d="M0,0 L0,6 L9,3 z" fill="#0891b2"/></marker><marker id="arrow-control" markerWidth="10" markerHeight="10" refX="8" refY="3" orient="auto" markerUnits="strokeWidth"><path d="M0,0 L0,6 L9,3 z" fill="#475569"/></marker><marker id="arrow-backup" markerWidth="10" markerHeight="10" refX="8" refY="3" orient="auto" markerUnits="strokeWidth"><path d="M0,0 L0,6 L9,3 z" fill="#dc2626"/></marker><filter id="shadow" x="-20%" y="-20%" width="140%" height="140%"><feDropShadow dx="0" dy="3" stdDeviation="5" flood-color="#0f172a" flood-opacity="0.09"/></filter></defs>
  <style>
    text{font-family:Inter,"Segoe UI",Arial,sans-serif;fill:#0f172a}
    .diagram-title{font-size:30px;font-weight:700}.diagram-subtitle{font-size:14px;fill:#475569}
    .legend{font-size:12px;fill:#475569;font-weight:600}.group-title{font-size:17px;font-weight:700}
    .badge{font-size:10px;font-weight:700;fill:#fff;letter-spacing:.4px}.status{font-size:10px;font-weight:700}
    .node-title{font-size:14px;font-weight:700}.node-subtitle{font-size:11px;font-weight:600;fill:#475569}.node-detail{font-size:10.5px;fill:#475569}
    .service-go{font-size:9px;font-weight:700;fill:#fff}.service-title{font-size:14px;font-weight:700}.service-subtitle{font-size:10px;fill:#475569}
    .tile-title{font-size:15px;font-weight:700}.tile-subtitle{font-size:11px;fill:#475569}.tile-detail{font-size:10px;fill:#475569}
    .obs-title{font-size:15px;font-weight:700}.obs-subtitle{font-size:11px;fill:#475569}.principle-title{font-size:11px;font-weight:700}
    .bus-title{font-size:19px;font-weight:700}.bus-subtitle{font-size:12px;fill:#475569}
    .legend-item{font-size:11px;fill:#0f172a}
    .edge-label{font-size:9px;fill:#475569;paint-order:stroke;stroke:#f8fafc;stroke-width:4px;stroke-linejoin:round}.edge{pointer-events:none}
  </style>
  <rect width="100%" height="100%" fill="#f8fafc"/>
  <text x="40" y="64" text-anchor="start" class="diagram-title">Automatic City Services · общая архитектура</text>
  <text x="40" y="94" text-anchor="start" class="diagram-subtitle">Синхронный HTTP/2 + gRPC контур, событийная интеграция Kafka, service-owned data и единая наблюдаемость</text>
  <text x="40" y="138" class="legend" fill="#059669">━━ HTTPS/REST</text>
  <text x="190" y="138" class="legend" fill="#2563eb">━━ gRPC/HTTP2</text>
  <text x="345" y="138" class="legend" fill="#7c3aed">┄┄ Kafka/events</text>
  <text x="510" y="138" class="legend" fill="#7c3aed">━━ data</text>
  <text x="605" y="138" class="legend" fill="#0891b2">┄┄ telemetry/control</text>
  <text x="820" y="138" class="legend" fill="#059669">HA = failover contour</text>
  <text x="1005" y="138" class="legend" fill="#d97706">SPOF = single instance</text>
  <g><rect x="40" y="170" width="500" height="1040" rx="24" fill="#ecfdf5" stroke="#6ee7b7" stroke-width="2" stroke-dasharray="10 7"/><text x="60" y="204" class="group-title" fill="#0f172a">01 · Клиенты и edge</text></g><g><rect x="580" y="170" width="1320" height="1040" rx="24" fill="#eff6ff" stroke="#93c5fd" stroke-width="2" stroke-dasharray="10 7"/><text x="600" y="204" class="group-title" fill="#0f172a">02 · Прикладные сервисы · Istio mesh · gRPC/HTTP2</text></g><g><rect x="1940" y="170" width="620" height="1040" rx="24" fill="#f5f3ff" stroke="#c4b5fd" stroke-width="2" stroke-dasharray="10 7"/><text x="1960" y="204" class="group-title" fill="#0f172a">03 · Данные и внешние движки</text></g><g><rect x="580" y="1250" width="1980" height="300" rx="24" fill="#fff7ed" stroke="#fdba74" stroke-width="2" stroke-dasharray="10 7"/><text x="600" y="1284" class="group-title" fill="#0f172a">04 · Асинхронная шина · transactional outbox / inbox / retry / DLQ</text></g><g><rect x="40" y="1590" width="2520" height="260" rx="24" fill="#ecfeff" stroke="#67e8f9" stroke-width="2" stroke-dasharray="10 7"/><text x="60" y="1624" class="group-title" fill="#0f172a">05 · Наблюдаемость и эксплуатация</text></g><g class="edge"><path d="M 172.5 395 L 231.25 395 L 231.25 445 L 290 445" fill="none" stroke="#111827" stroke-width="2.5"  marker-end="url(#arrow-http)" opacity="0.78"/><text x="236.25" y="414" class="edge-label">HTTPS</text></g><g class="edge"><path d="M 290 550 L 290 575 L 290 575 L 290 600" fill="none" stroke="#111827" stroke-width="2.5"  marker-end="url(#arrow-http)" opacity="0.78"/><text x="298" y="569" class="edge-label">HTTP/2</text></g><g class="edge"><path d="M 290 710 L 231.25 710 L 231.25 770 L 172.5 770" fill="none" stroke="#111827" stroke-width="2.5"  marker-end="url(#arrow-http)" opacity="0.78"/><text x="236.25" y="734" class="edge-label">web</text></g><g class="edge"><path d="M 290 710 L 348.75 710 L 348.75 770 L 407.5 770" fill="none" stroke="#111827" stroke-width="2.5"  marker-end="url(#arrow-http)" opacity="0.78"/><text x="353.75" y="734" class="edge-label">api / ws</text></g><g class="edge"><path d="M 275 855 L 290 855 L 290 855 L 305 855" fill="none" stroke="#111827" stroke-width="2.5"  marker-end="url(#arrow-http)" opacity="0.78"/><text x="295" y="849" class="edge-label">REST + WebSocket</text></g><g class="edge"><path d="M 510 322.5 L 890 322.5 L 890 572.5 L 1270 572.5" fill="none" stroke="#111827" stroke-width="2.5"  marker-end="url(#arrow-http)" opacity="0.78"/><text x="895" y="441.5" class="edge-label">telemetry</text></g><g class="edge"><path d="M 275 855 L 1222.5 855 L 1222.5 1120 L 2170 1120" fill="none" stroke="#111827" stroke-width="2.5"  marker-end="url(#arrow-http)" opacity="0.78"/><text x="1227.5" y="981.5" class="edge-label">tiles / geocode</text></g><g class="edge"><path d="M 275 855 L 1130 855 L 1130 1120 L 1985 1120" fill="none" stroke="#111827" stroke-width="2.5"  marker-end="url(#arrow-http)" opacity="0.78"/><text x="1135" y="981.5" class="edge-label">map route proxy</text></g><g class="edge"><path d="M 510 855 L 1050 855 L 1050 1022.5 L 1590 1022.5" fill="none" stroke="#334155" stroke-width="2.5"  marker-end="url(#arrow-grpc)" opacity="0.78"/><text x="1055" y="932.75" class="edge-label">fan-out gRPC</text></g><g class="edge"><path d="M 1590 1022.5 L 1245 1022.5 L 1245 342.5 L 900 342.5" fill="none" stroke="#334155" stroke-width="2.5"  marker-end="url(#arrow-grpc)" opacity="0.78"/><text x="1250" y="676.5" class="edge-label">public APIs</text></g><g class="edge"><path d="M 1590 1022.5 L 1245 1022.5 L 1245 572.5 L 900 572.5" fill="none" stroke="#334155" stroke-width="2.5"  marker-end="url(#arrow-grpc)" opacity="0.78"/><text x="1250" y="791.5" class="edge-label">public APIs</text></g><g class="edge"><path d="M 1590 1022.5 L 1245 1022.5 L 1245 797.5 L 900 797.5" fill="none" stroke="#334155" stroke-width="2.5"  marker-end="url(#arrow-grpc)" opacity="0.78"/><text x="1250" y="904" class="edge-label">public APIs</text></g><g class="edge"><path d="M 900 342.5 L 925 342.5 L 925 342.5 L 950 342.5" fill="none" stroke="#334155" stroke-width="2.5"  marker-end="url(#arrow-grpc)" opacity="0.78"/><text x="930" y="336.5" class="edge-label">create/rollback profile</text></g><g class="edge"><path d="M 1220 342.5 L 1245 342.5 L 1245 342.5 L 1270 342.5" fill="none" stroke="#334155" stroke-width="2.5"  marker-end="url(#arrow-grpc)" opacity="0.78"/><text x="1250" y="336.5" class="edge-label">working department</text></g><g class="edge"><path d="M 1590 342.5 L 1405 342.5 L 1405 342.5 L 1220 342.5" fill="none" stroke="#334155" stroke-width="2.5"  marker-end="url(#arrow-grpc)" opacity="0.78"/><text x="1410" y="336.5" class="edge-label">worker profile</text></g><g class="edge"><path d="M 950 572.5 L 925 572.5 L 925 572.5 L 900 572.5" fill="none" stroke="#334155" stroke-width="2.5"  marker-end="url(#arrow-grpc)" opacity="0.78"/><text x="930" y="566.5" class="edge-label">assign / reserve</text></g><g class="edge"><path d="M 1220 572.5 L 1405 572.5 L 1405 342.5 L 1590 342.5" fill="none" stroke="#334155" stroke-width="2.5"  marker-end="url(#arrow-grpc)" opacity="0.78"/><text x="1410" y="451.5" class="edge-label">availability</text></g><g class="edge"><path d="M 1220 797.5 L 1220 910 L 1270 910 L 1270 1022.5" fill="none" stroke="#334155" stroke-width="2.5"  marker-end="url(#arrow-grpc)" opacity="0.78"/><text x="1228" y="904" class="edge-label">aggregates</text></g><g class="edge"><path d="M 950 797.5 L 925 797.5 L 925 797.5 L 900 797.5" fill="none" stroke="#334155" stroke-width="2.5"  marker-end="url(#arrow-grpc)" opacity="0.78"/><text x="930" y="791.5" class="edge-label">save PDF</text></g><g class="edge"><path d="M 1725 655 L 1725 862.5 L 2065 862.5 L 2065 1070" fill="none" stroke="#111827" stroke-width="2.5"  marker-end="url(#arrow-http)" opacity="0.78"/><text x="1733" y="856.5" class="edge-label">route / ETA</text></g><g class="edge"><path d="M 900 572.5 L 1442.5 572.5 L 1442.5 577.5 L 1985 577.5" fill="none" stroke="#7c3aed" stroke-width="2.5"  marker-end="url(#arrow-data)" opacity="0.78"/><text x="1447.5" y="569" class="edge-label">read/write</text></g><g class="edge"><path d="M 1725 940 L 1987.5 940 L 1987.5 450 L 2250 450" fill="none" stroke="#7c3aed" stroke-width="2.5"  marker-end="url(#arrow-data)" opacity="0.78"/><text x="1992.5" y="689" class="edge-label">service DBs via PgBouncer</text></g><g class="edge"><path d="M 510 855 L 1247.5 855 L 1247.5 787.5 L 1985 787.5" fill="none" stroke="#7c3aed" stroke-width="2.5"  marker-end="url(#arrow-data)" opacity="0.78"/><text x="1252.5" y="815.25" class="edge-label">rate limit</text></g><g class="edge"><path d="M 1540 572.5 L 1855 572.5 L 1855 787.5 L 2170 787.5" fill="none" stroke="#7c3aed" stroke-width="2.5"  marker-end="url(#arrow-data)" opacity="0.78"/><text x="1860" y="674" class="edge-label">positions / stream</text></g><g class="edge"><path d="M 900 1022.5 L 1627.5 1022.5 L 1627.5 787.5 L 2355 787.5" fill="none" stroke="#7c3aed" stroke-width="2.5"  marker-end="url(#arrow-data)" opacity="0.78"/><text x="1632.5" y="899" class="edge-label">live channels</text></g><g class="edge"><path d="M 900 797.5 L 1442.5 797.5 L 1442.5 967.5 L 1985 967.5" fill="none" stroke="#7c3aed" stroke-width="2.5"  marker-end="url(#arrow-data)" opacity="0.78"/><text x="1447.5" y="876.5" class="edge-label">objects</text></g><g class="edge"><path d="M 1220 797.5 L 1602.5 797.5 L 1602.5 967.5 L 1985 967.5" fill="none" stroke="#7c3aed" stroke-width="2.5"  marker-end="url(#arrow-data)" opacity="0.78"/><text x="1607.5" y="876.5" class="edge-label">PDF</text></g><g class="edge"><path d="M 1540 1022.5 L 1902.5 1022.5 L 1902.5 967.5 L 2265 967.5" fill="none" stroke="#7c3aed" stroke-width="2.5"  marker-end="url(#arrow-data)" opacity="0.78"/><text x="1907.5" y="989" class="edge-label">OLAP</text></g><g class="edge"><path d="M 900 342.5 L 1627.5 342.5 L 1627.5 1120 L 2355 1120" fill="none" stroke="#111827" stroke-width="2.5"  marker-end="url(#arrow-http)" opacity="0.78"/><text x="1632.5" y="725.25" class="edge-label">SMTP</text></g><g class="edge"><path d="M 765 655 L 1167.5 655 L 1167.5 1320 L 1570 1320" fill="none" stroke="#7c3aed" stroke-width="2.5" stroke-dasharray="9 7" marker-end="url(#arrow-kafka)" opacity="0.78"/><text x="1172.5" y="981.5" class="edge-label">outbox → tickets.events</text></g><g class="edge"><path d="M 1405 655 L 1405 987.5 L 1570 987.5 L 1570 1320" fill="none" stroke="#7c3aed" stroke-width="2.5" stroke-dasharray="9 7" marker-end="url(#arrow-kafka)" opacity="0.78"/><text x="1413" y="981.5" class="edge-label">Redis Stream relay</text></g><g class="edge"><path d="M 1570 1320 L 1570 1100 L 1725 1100 L 1725 880" fill="none" stroke="#7c3aed" stroke-width="2.5" stroke-dasharray="9 7" marker-end="url(#arrow-kafka)" opacity="0.78"/><text x="1578" y="1094" class="edge-label">tickets.events</text></g><g class="edge"><path d="M 640 1402.5 L 640 1212.5 L 900 1212.5 L 900 1022.5" fill="none" stroke="#7c3aed" stroke-width="2.5" stroke-dasharray="9 7" marker-end="url(#arrow-kafka)" opacity="0.78"/><text x="648" y="1206.5" class="edge-label">domain fan-in</text></g><g class="edge"><path d="M 640 1402.5 L 930 1402.5 L 930 1022.5 L 1220 1022.5" fill="none" stroke="#7c3aed" stroke-width="2.5" stroke-dasharray="9 7" marker-end="url(#arrow-kafka)" opacity="0.78"/><text x="935" y="1206.5" class="edge-label">all events</text></g><g class="edge"><path d="M 1570 1320 L 1570 1212.5 L 1405 1212.5 L 1405 1105" fill="none" stroke="#7c3aed" stroke-width="2.5" stroke-dasharray="9 7" marker-end="url(#arrow-kafka)" opacity="0.78"/><text x="1578" y="1206.5" class="edge-label">all events</text></g><g class="edge"><path d="M 1570 1320 L 1570 987.5 L 1725 987.5 L 1725 655" fill="none" stroke="#7c3aed" stroke-width="2.5" stroke-dasharray="9 7" marker-end="url(#arrow-kafka)" opacity="0.78"/><text x="1578" y="981.5" class="edge-label">tickets.events</text></g><g class="edge"><path d="M 1570 1320 L 1570 870 L 1725 870 L 1725 420" fill="none" stroke="#7c3aed" stroke-width="2.5" stroke-dasharray="9 7" marker-end="url(#arrow-kafka)" opacity="0.78"/><text x="1578" y="864" class="edge-label">ticket/routing/profile</text></g><g class="edge"><path d="M 1570 1320 L 1327.5 1320 L 1327.5 880 L 1085 880" fill="none" stroke="#7c3aed" stroke-width="2.5" stroke-dasharray="9 7" marker-end="url(#arrow-kafka)" opacity="0.78"/><text x="1332.5" y="1094" class="edge-label">completion request</text></g><g class="edge"><path d="M 1085 880 L 1327.5 880 L 1327.5 1320 L 1570 1320" fill="none" stroke="#7c3aed" stroke-width="2.5" stroke-dasharray="9 7" marker-end="url(#arrow-kafka)" opacity="0.78"/><text x="1332.5" y="1094" class="edge-label">result / compensation</text></g><g class="edge"><path d="M 1590 1022.5 L 962.5 1022.5 L 962.5 1722.5 L 335 1722.5" fill="none" stroke="#0891b2" stroke-width="2" stroke-dasharray="9 7" marker-end="url(#arrow-telemetry)" opacity="0.78"/><text x="967.5" y="1366.5" class="edge-label">OTLP</text></g><g class="edge"><path d="M 335 1722.5 L 352.5 1722.5 L 352.5 1722.5 L 370 1722.5" fill="none" stroke="#0891b2" stroke-width="2" stroke-dasharray="9 7" marker-end="url(#arrow-telemetry)" opacity="0.78"/><text x="357.5" y="1716.5" class="edge-label">traces</text></g><g class="edge"><path d="M 895 1722.5 L 912.5 1722.5 L 912.5 1722.5 L 930 1722.5" fill="none" stroke="#0891b2" stroke-width="2" stroke-dasharray="9 7" marker-end="url(#arrow-telemetry)" opacity="0.78"/><text x="917.5" y="1716.5" class="edge-label">PromQL</text></g><g class="edge"><path d="M 1455 1722.5 L 1472.5 1722.5 L 1472.5 1722.5 L 1490 1722.5" fill="none" stroke="#0891b2" stroke-width="2" stroke-dasharray="9 7" marker-end="url(#arrow-telemetry)" opacity="0.78"/><text x="1477.5" y="1716.5" class="edge-label">logs</text></g><g class="edge"><path d="M 1735 1722.5 L 1752.5 1722.5 L 1752.5 1722.5 L 1770 1722.5" fill="none" stroke="#0891b2" stroke-width="2" stroke-dasharray="9 7" marker-end="url(#arrow-telemetry)" opacity="0.78"/><text x="1757.5" y="1716.5" class="edge-label">search</text></g><g class="edge"><path d="M 1490 1722.5 L 1332.5 1722.5 L 1332.5 1722.5 L 1175 1722.5" fill="none" stroke="#0891b2" stroke-width="2" stroke-dasharray="9 7" marker-end="url(#arrow-telemetry)" opacity="0.78"/><text x="1337.5" y="1716.5" class="edge-label">logs</text></g><g class="edge"><path d="M 895 1722.5 L 1472.5 1722.5 L 1472.5 1722.5 L 2050 1722.5" fill="none" stroke="#0891b2" stroke-width="2" stroke-dasharray="9 7" marker-end="url(#arrow-telemetry)" opacity="0.78"/><text x="1477.5" y="1716.5" class="edge-label">mesh metrics</text></g><g id="users"><rect x="70" y="250" width="205" height="145" rx="18" fill="#ffffff" stroke="#059669" stroke-width="2" filter="url(#shadow)"/><rect x="84" y="264" width="56" height="25" rx="7" fill="#059669"/><text x="94" y="281" class="badge">USERS</text><text x="86" y="304" class="node-title">Пользователи</text><text x="86" y="325" class="node-subtitle">Житель · диспетчер</text><text x="86" y="346" class="node-detail">Работник · администратор</text><text x="86" y="367" class="node-detail">Browser · role-aware UI</text></g><g id="trackers"><rect x="305" y="250" width="205" height="145" rx="18" fill="#ffffff" stroke="#059669" stroke-width="2" filter="url(#shadow)"/><rect x="319" y="264" width="44" height="25" rx="7" fill="#059669"/><text x="329" y="281" class="badge">GPS</text><text x="321" y="304" class="node-title">GPS и машины</text><text x="321" y="325" class="node-subtitle">Location ingest</text><text x="321" y="346" class="node-detail">HTTP + API key</text><text x="321" y="367" class="node-detail">Live coordinates</text></g><g id="ngrok"><rect x="70" y="445" width="440" height="105" rx="18" fill="#ffffff" stroke="#059669" stroke-width="2" filter="url(#shadow)"/><rect x="84" y="459" width="48" height="25" rx="7" fill="#059669"/><text x="94" y="476" class="badge">EDGE</text><text x="86" y="499" class="node-title">ngrok Tunnel (опционально)</text><text x="86" y="520" class="node-subtitle">Единый публичный HTTPS URL</text><text x="86" y="541" class="node-detail">Dev-доступ без входящего NodePort</text></g><g id="ingress"><polygon points="92,600 488,600 510,622 510,688 488,710 92,710 70,688 70,622" fill="#ffffff" stroke="#059669" stroke-width="2" filter="url(#shadow)"/><rect x="84" y="614" width="56" height="25" rx="7" fill="#059669"/><text x="94" y="631" class="badge">ISTIO</text><text x="86" y="654" class="node-title">Istio Ingress Gateway</text><text x="86" y="675" class="node-subtitle">TLS / VirtualService / routing</text><text x="86" y="696" class="node-detail">Frontend :3000 · API Gateway :8081</text></g><g id="frontend"><rect x="70" y="770" width="205" height="170" rx="18" fill="#ffffff" stroke="#059669" stroke-width="2" filter="url(#shadow)"/><rect x="84" y="784" width="44" height="25" rx="7" fill="#059669"/><text x="94" y="801" class="badge">WEB</text><text x="86" y="824" class="node-title">Frontend</text><text x="86" y="845" class="node-subtitle">React/Vite</text><text x="86" y="866" class="node-detail">Карты и заявки</text><text x="86" y="887" class="node-detail">HTTPS · HTTP/2</text><text x="86" y="908" class="node-detail">WebSocket</text></g><g id="gateway"><rect x="305" y="770" width="205" height="170" rx="18" fill="#ffffff" stroke="#2563eb" stroke-width="2" filter="url(#shadow)"/><rect x="319" y="784" width="44" height="25" rx="7" fill="#2563eb"/><text x="329" y="801" class="badge">API</text><text x="321" y="824" class="node-title">API Gateway</text><text x="321" y="845" class="node-subtitle">REST → gRPC</text><text x="321" y="866" class="node-detail">JWT/RBAC</text><text x="321" y="887" class="node-detail">rate limits</text><text x="321" y="908" class="node-detail">retries/timeouts</text></g><g id="auth"><rect x="630" y="265" width="270" height="155" rx="18" fill="#ffffff" stroke="#2563eb" stroke-width="2" filter="url(#shadow)"/><rect x="644" y="279" width="48" height="25" rx="7" fill="#2563eb"/><text x="654" y="296" class="badge">AUTH</text><text x="646" y="319" class="node-title">Auth Service</text><text x="646" y="340" class="node-subtitle">gRPC :50051</text><text x="646" y="361" class="node-detail">Пользователи, сессии, JWT, email</text><text x="646" y="382" class="node-detail">Atomic registration → Profile · outbox</text></g><g id="profile"><rect x="950" y="265" width="270" height="155" rx="18" fill="#ffffff" stroke="#2563eb" stroke-width="2" filter="url(#shadow)"/><rect x="964" y="279" width="72" height="25" rx="7" fill="#2563eb"/><text x="974" y="296" class="badge">PROFILE</text><text x="966" y="319" class="node-title">Profile Service</text><text x="966" y="340" class="node-subtitle">gRPC :50055</text><text x="966" y="361" class="node-detail">Профили и рабочие роли</text><text x="966" y="382" class="node-detail">Auth + Department lookups · outbox</text></g><g id="department"><rect x="1270" y="265" width="270" height="155" rx="18" fill="#ffffff" stroke="#2563eb" stroke-width="2" filter="url(#shadow)"/><rect x="1284" y="279" width="48" height="25" rx="7" fill="#2563eb"/><text x="1294" y="296" class="badge">DEPT</text><text x="1286" y="319" class="node-title">Department Service</text><text x="1286" y="340" class="node-subtitle">gRPC :50053</text><text x="1286" y="361" class="node-detail">Департаменты и зоны ответственности</text><text x="1286" y="382" class="node-detail">Справочники · outbox</text></g><g id="brigade"><rect x="1590" y="265" width="270" height="155" rx="18" fill="#ffffff" stroke="#2563eb" stroke-width="2" filter="url(#shadow)"/><rect x="1604" y="279" width="48" height="25" rx="7" fill="#2563eb"/><text x="1614" y="296" class="badge">TEAM</text><text x="1606" y="319" class="node-title">Brigade Service</text><text x="1606" y="340" class="node-subtitle">gRPC :50054</text><text x="1606" y="361" class="node-detail">Бригады, навыки, смены, занятость</text><text x="1606" y="382" class="node-detail">Profile projection · routing/ticket consumers</text></g><g id="ticket"><rect x="630" y="490" width="270" height="165" rx="18" fill="#ffffff" stroke="#059669" stroke-width="2" filter="url(#shadow)"/><rect x="644" y="504" width="64" height="25" rx="7" fill="#059669"/><text x="654" y="521" class="badge">TICKET</text><text x="646" y="544" class="node-title">Ticket Service</text><text x="646" y="565" class="node-subtitle">gRPC :50052 · центральный workflow</text><text x="646" y="586" class="node-detail">Заявки, статусы, назначения, отчёты</text><text x="646" y="607" class="node-detail">Citus department_id · outbox · Saga</text></g><g id="dispatch"><rect x="950" y="490" width="270" height="165" rx="18" fill="#ffffff" stroke="#059669" stroke-width="2" filter="url(#shadow)"/><rect x="964" y="504" width="80" height="25" rx="7" fill="#059669"/><text x="974" y="521" class="badge">DISPATCH</text><text x="966" y="544" class="node-title">Dispatch Service</text><text x="966" y="565" class="node-subtitle">gRPC :50058</text><text x="966" y="586" class="node-detail">Подбор департамента и бригады</text><text x="966" y="607" class="node-detail">Reservations TTL · Ticket + Brigade</text></g><g id="location"><rect x="1270" y="490" width="270" height="165" rx="18" fill="#ffffff" stroke="#059669" stroke-width="2" filter="url(#shadow)"/><rect x="1284" y="504" width="44" height="25" rx="7" fill="#059669"/><text x="1294" y="521" class="badge">GEO</text><text x="1286" y="544" class="node-title">Location Service</text><text x="1286" y="565" class="node-subtitle">gRPC :50056 · HTTP :8080</text><text x="1286" y="586" class="node-detail">Live positions · history partitions</text><text x="1286" y="607" class="node-detail">Redis Stream → Kafka relay</text></g><g id="routing"><rect x="1590" y="490" width="270" height="165" rx="18" fill="#ffffff" stroke="#059669" stroke-width="2" filter="url(#shadow)"/><rect x="1604" y="504" width="56" height="25" rx="7" fill="#059669"/><text x="1614" y="521" class="badge">ROUTE</text><text x="1606" y="544" class="node-title">Routing Service</text><text x="1606" y="565" class="node-subtitle">gRPC :50057</text><text x="1606" y="586" class="node-detail">Маршруты и ETA</text><text x="1606" y="607" class="node-detail">Valhalla · ticket consumer · outbox</text></g><g id="file"><rect x="630" y="715" width="270" height="165" rx="18" fill="#ffffff" stroke="#7c3aed" stroke-width="2" filter="url(#shadow)"/><rect x="644" y="729" width="48" height="25" rx="7" fill="#7c3aed"/><text x="654" y="746" class="badge">FILE</text><text x="646" y="769" class="node-title">File Service</text><text x="646" y="790" class="node-subtitle">gRPC :50059</text><text x="646" y="811" class="node-detail">Метаданные + presigned URL</text><text x="646" y="832" class="node-detail">Синхронный MinIO/S3 lifecycle</text></g><g id="report"><rect x="950" y="715" width="270" height="165" rx="18" fill="#ffffff" stroke="#7c3aed" stroke-width="2" filter="url(#shadow)"/><rect x="964" y="729" width="44" height="25" rx="7" fill="#7c3aed"/><text x="974" y="746" class="badge">PDF</text><text x="966" y="769" class="node-title">Report Service</text><text x="966" y="790" class="node-subtitle">gRPC :50064 · HTTP :8084</text><text x="966" y="811" class="node-detail">PDF/аналитические отчёты</text><text x="966" y="832" class="node-detail">Completion Saga · File + Analytics</text></g><g id="asset"><rect x="1270" y="715" width="270" height="165" rx="18" fill="#ffffff" stroke="#7c3aed" stroke-width="2" filter="url(#shadow)"/><rect x="1284" y="729" width="56" height="25" rx="7" fill="#7c3aed"/><text x="1294" y="746" class="badge">ASSET</text><text x="1286" y="769" class="node-title">Asset Service</text><text x="1286" y="790" class="node-subtitle">gRPC :50065</text><text x="1286" y="811" class="node-detail">Паспорта городских объектов</text><text x="1286" y="832" class="node-detail">PostGIS geometry · lifecycle · outbox</text></g><g id="sla"><rect x="1590" y="715" width="270" height="165" rx="18" fill="#ffffff" stroke="#7c3aed" stroke-width="2" filter="url(#shadow)"/><rect x="1604" y="729" width="44" height="25" rx="7" fill="#7c3aed"/><text x="1614" y="746" class="badge">SLA</text><text x="1606" y="769" class="node-title">SLA Service</text><text x="1606" y="790" class="node-subtitle">gRPC :50060</text><text x="1606" y="811" class="node-detail">Deadlines, warning, breach</text><text x="1606" y="832" class="node-detail">tickets consumer → sla events</text></g><g id="notification"><rect x="630" y="940" width="270" height="165" rx="18" fill="#ffffff" stroke="#ea580c" stroke-width="2" filter="url(#shadow)"/><rect x="644" y="954" width="64" height="25" rx="7" fill="#ea580c"/><text x="654" y="971" class="badge">NOTIFY</text><text x="646" y="994" class="node-title">Notification Service</text><text x="646" y="1015" class="node-subtitle">gRPC :50061 · WebSocket</text><text x="646" y="1036" class="node-detail">Общие пользовательские уведомления</text><text x="646" y="1057" class="node-detail">Kafka fan-in · Redis live channels · SMTP</text></g><g id="audit"><rect x="950" y="940" width="270" height="165" rx="18" fill="#ffffff" stroke="#ea580c" stroke-width="2" filter="url(#shadow)"/><rect x="964" y="954" width="56" height="25" rx="7" fill="#ea580c"/><text x="974" y="971" class="badge">AUDIT</text><text x="966" y="994" class="node-title">Audit Service</text><text x="966" y="1015" class="node-subtitle">gRPC :50062</text><text x="966" y="1036" class="node-detail">Неизменяемый журнал действий</text><text x="966" y="1057" class="node-detail">Все доменные Kafka events</text></g><g id="analytics"><rect x="1270" y="940" width="270" height="165" rx="18" fill="#ffffff" stroke="#ea580c" stroke-width="2" filter="url(#shadow)"/><rect x="1284" y="954" width="48" height="25" rx="7" fill="#ea580c"/><text x="1294" y="971" class="badge">OLAP</text><text x="1286" y="994" class="node-title">Analytics Service</text><text x="1286" y="1015" class="node-subtitle">gRPC :50063</text><text x="1286" y="1036" class="node-detail">Read models и агрегаты</text><text x="1286" y="1057" class="node-detail">Все события → ClickHouse</text></g><g id="grpc-fabric"><polygon points="1612,940 1838,940 1860,962 1860,1083 1838,1105 1612,1105 1590,1083 1590,962" fill="#ffffff" stroke="#0891b2" stroke-width="2" filter="url(#shadow)"/><rect x="1604" y="954" width="48" height="25" rx="7" fill="#0891b2"/><text x="1614" y="971" class="badge">MESH</text><text x="1606" y="994" class="node-title">Service mesh fabric</text><text x="1606" y="1015" class="node-subtitle">HTTP/2 gRPC · mTLS STRICT</text><text x="1606" y="1036" class="node-detail">Trace context · retries · connection pools</text><text x="1606" y="1057" class="node-detail">NetworkPolicy + AuthorizationPolicy</text></g><g id="platform-db"><path d="M 1985 279 Q 1985 265 2250 265 Q 2515 265 2515 279 L 2515 436 Q 2515 450 2250 450 Q 1985 450 1985 436 Z" fill="#ffffff" stroke="#7c3aed" stroke-width="2" filter="url(#shadow)"/><ellipse cx="2250" cy="279" rx="265" ry="14" fill="none" stroke="#7c3aed" stroke-width="2"/><rect x="1999" y="279" width="44" height="25" rx="7" fill="#7c3aed"/><text x="2009" y="296" class="badge">PG</text><rect x="2445" y="279" width="55" height="24" rx="12" fill="#ecfdf5" stroke="#059669"/><text x="2472.5" y="295" text-anchor="middle" class="status" fill="#059669">HA</text><text x="2001" y="319" class="node-title">Platform PostgreSQL / Patroni</text><text x="2001" y="340" class="node-subtitle">13 service-owned databases</text><text x="2001" y="361" class="node-detail">auth · department · brigade · profile · location</text><text x="2001" y="382" class="node-detail">routing · dispatch · file · sla · notification</text><text x="2001" y="403" class="node-detail">audit · report · asset (PostGIS)</text></g><g id="ticket-db"><path d="M 1985 504 Q 1985 490 2250 490 Q 2515 490 2515 504 L 2515 651 Q 2515 665 2250 665 Q 1985 665 1985 651 Z" fill="#ffffff" stroke="#7c3aed" stroke-width="2" filter="url(#shadow)"/><ellipse cx="2250" cy="504" rx="265" ry="14" fill="none" stroke="#7c3aed" stroke-width="2"/><rect x="1999" y="504" width="56" height="25" rx="7" fill="#7c3aed"/><text x="2009" y="521" class="badge">CITUS</text><rect x="2445" y="504" width="55" height="24" rx="12" fill="#ecfdf5" stroke="#059669"/><text x="2472.5" y="520" text-anchor="middle" class="status" fill="#059669">HA</text><text x="2001" y="544" class="node-title">Ticket PostgreSQL + Citus</text><text x="2001" y="565" class="node-subtitle">ticket_db · shard key department_id</text><text x="2001" y="586" class="node-detail">Coordinator + 2 worker groups</text><text x="2001" y="607" class="node-detail">Colocated ticket/history/report/outbox tables</text></g><g id="redis-gateway"><path d="M 1985 729 Q 1985 715 2065 715 Q 2145 715 2145 729 L 2145 846 Q 2145 860 2065 860 Q 1985 860 1985 846 Z" fill="#ffffff" stroke="#dc2626" stroke-width="2" filter="url(#shadow)"/><ellipse cx="2065" cy="729" rx="80" ry="14" fill="none" stroke="#dc2626" stroke-width="2"/><rect x="1999" y="729" width="44" height="25" rx="7" fill="#dc2626"/><text x="2009" y="746" class="badge">RDS</text><text x="2001" y="769" class="node-title">Redis Gateway</text><text x="2001" y="790" class="node-subtitle">rate limit</text><text x="2001" y="811" class="node-detail">AOF</text></g><g id="redis-location"><path d="M 2170 729 Q 2170 715 2250 715 Q 2330 715 2330 729 L 2330 846 Q 2330 860 2250 860 Q 2170 860 2170 846 Z" fill="#ffffff" stroke="#dc2626" stroke-width="2" filter="url(#shadow)"/><ellipse cx="2250" cy="729" rx="80" ry="14" fill="none" stroke="#dc2626" stroke-width="2"/><rect x="2184" y="729" width="44" height="25" rx="7" fill="#dc2626"/><text x="2194" y="746" class="badge">RDS</text><rect x="2260" y="729" width="55" height="24" rx="12" fill="#ecfdf5" stroke="#059669"/><text x="2287.5" y="745" text-anchor="middle" class="status" fill="#059669">HA</text><text x="2186" y="769" class="node-title">Redis Location</text><text x="2186" y="790" class="node-subtitle">master + 2 replicas</text><text x="2186" y="811" class="node-detail">Sentinel ×3</text></g><g id="redis-notification"><path d="M 2355 729 Q 2355 715 2435 715 Q 2515 715 2515 729 L 2515 846 Q 2515 860 2435 860 Q 2355 860 2355 846 Z" fill="#ffffff" stroke="#dc2626" stroke-width="2" filter="url(#shadow)"/><ellipse cx="2435" cy="729" rx="80" ry="14" fill="none" stroke="#dc2626" stroke-width="2"/><rect x="2369" y="729" width="44" height="25" rx="7" fill="#dc2626"/><text x="2379" y="746" class="badge">RDS</text><text x="2371" y="769" class="node-title">Redis Notify</text><text x="2371" y="790" class="node-subtitle">live channels</text><text x="2371" y="811" class="node-detail">AOF</text></g><g id="minio"><path d="M 1985 914 Q 1985 900 2110 900 Q 2235 900 2235 914 L 2235 1021 Q 2235 1035 2110 1035 Q 1985 1035 1985 1021 Z" fill="#ffffff" stroke="#7c3aed" stroke-width="2" filter="url(#shadow)"/><ellipse cx="2110" cy="914" rx="125" ry="14" fill="none" stroke="#7c3aed" stroke-width="2"/><rect x="1999" y="914" width="44" height="25" rx="7" fill="#7c3aed"/><text x="2009" y="931" class="badge">S3</text><text x="2001" y="954" class="node-title">MinIO</text><text x="2001" y="975" class="node-subtitle">city-files · postgres-backups</text><text x="2001" y="996" class="node-detail">Attachments · PDF · pgBackRest</text></g><g id="clickhouse"><path d="M 2265 914 Q 2265 900 2390 900 Q 2515 900 2515 914 L 2515 1021 Q 2515 1035 2390 1035 Q 2265 1035 2265 1021 Z" fill="#ffffff" stroke="#7c3aed" stroke-width="2" filter="url(#shadow)"/><ellipse cx="2390" cy="914" rx="125" ry="14" fill="none" stroke="#7c3aed" stroke-width="2"/><rect x="2279" y="914" width="44" height="25" rx="7" fill="#7c3aed"/><text x="2289" y="931" class="badge">CH</text><text x="2281" y="954" class="node-title">ClickHouse</text><text x="2281" y="975" class="node-subtitle">analytics read model</text><text x="2281" y="996" class="node-detail">domain_events FINAL</text></g><g id="valhalla"><rect x="1985" y="1070" width="160" height="100" rx="18" fill="#ffffff" stroke="#059669" stroke-width="2" filter="url(#shadow)"/><rect x="1999" y="1084" width="44" height="25" rx="7" fill="#059669"/><text x="2009" y="1101" class="badge">MAP</text><text x="2001" y="1124" class="node-title">Valhalla</text><text x="2001" y="1145" class="node-subtitle">routing :8002</text></g><g id="openstreetmap"><rect x="2170" y="1070" width="160" height="100" rx="18" fill="#ffffff" stroke="#059669" stroke-width="2" filter="url(#shadow)"/><rect x="2184" y="1084" width="44" height="25" rx="7" fill="#059669"/><text x="2194" y="1101" class="badge">OSM</text><text x="2186" y="1124" class="node-title">OSM / Nominatim</text><text x="2186" y="1145" class="node-subtitle">tiles · geocode</text></g><g id="mailhog"><rect x="2355" y="1070" width="160" height="100" rx="18" fill="#ffffff" stroke="#059669" stroke-width="2" filter="url(#shadow)"/><rect x="2369" y="1084" width="48" height="25" rx="7" fill="#059669"/><text x="2379" y="1101" class="badge">SMTP</text><text x="2371" y="1124" class="node-title">Mailhog / SMTP</text><text x="2371" y="1145" class="node-subtitle">local delivery</text></g><g id="kafka"><polygon points="668,1320 2472,1320 2500,1402.5 2472,1485 668,1485 640,1402.5" fill="#ffffff" stroke="#ea580c" stroke-width="2" filter="url(#shadow)"/><rect x="654" y="1334" width="56" height="25" rx="7" fill="#ea580c"/><text x="664" y="1351" class="badge">KAFKA</text><rect x="2430" y="1334" width="55" height="24" rx="12" fill="#ecfdf5" stroke="#059669"/><text x="2457.5" y="1350" text-anchor="middle" class="status" fill="#059669">HA</text><text x="656" y="1374" class="node-title">Kafka KRaft cluster ×3</text><text x="656" y="1395" class="node-subtitle">RF=3 · min.insync.replicas=2 · producer outbox · consumer inbox/idempotency</text><text x="656" y="1416" class="node-detail">auth · profiles · departments · brigades · tickets · locations · routing · dispatch</text><text x="656" y="1437" class="node-detail">sla · notifications · reports · assets · retry topics · *.dlq</text></g><g id="otel"><rect x="90" y="1660" width="245" height="125" rx="18" fill="#ffffff" stroke="#0891b2" stroke-width="2" filter="url(#shadow)"/><rect x="104" y="1674" width="48" height="25" rx="7" fill="#0891b2"/><text x="114" y="1691" class="badge">OTEL</text><text x="106" y="1714" class="node-title">OTel Collector</text><text x="106" y="1735" class="node-subtitle">OTLP traces</text><text x="106" y="1756" class="node-detail">SDK spans + infra receivers</text></g><g id="jaeger"><rect x="370" y="1660" width="245" height="125" rx="18" fill="#ffffff" stroke="#0891b2" stroke-width="2" filter="url(#shadow)"/><rect x="384" y="1674" width="56" height="25" rx="7" fill="#0891b2"/><text x="394" y="1691" class="badge">TRACE</text><text x="386" y="1714" class="node-title">Jaeger</text><text x="386" y="1735" class="node-subtitle">distributed traces</text><text x="386" y="1756" class="node-detail">Gateway → gRPC → DB/Kafka</text></g><g id="prometheus"><rect x="650" y="1660" width="245" height="125" rx="18" fill="#ffffff" stroke="#0891b2" stroke-width="2" filter="url(#shadow)"/><rect x="664" y="1674" width="48" height="25" rx="7" fill="#0891b2"/><text x="674" y="1691" class="badge">PROM</text><text x="666" y="1714" class="node-title">Prometheus</text><text x="666" y="1735" class="node-subtitle">scrape + exporters</text><text x="666" y="1756" class="node-detail">apps · K8s · PG · Kafka · Redis</text></g><g id="grafana"><rect x="930" y="1660" width="245" height="125" rx="18" fill="#ffffff" stroke="#0891b2" stroke-width="2" filter="url(#shadow)"/><rect x="944" y="1674" width="48" height="25" rx="7" fill="#0891b2"/><text x="954" y="1691" class="badge">GRAF</text><text x="946" y="1714" class="node-title">Grafana</text><text x="946" y="1735" class="node-subtitle">metrics + logs + traces</text><text x="946" y="1756" class="node-detail">Service &amp; infrastructure dashboards</text></g><g id="filebeat"><rect x="1210" y="1660" width="245" height="125" rx="18" fill="#ffffff" stroke="#0891b2" stroke-width="2" filter="url(#shadow)"/><rect x="1224" y="1674" width="48" height="25" rx="7" fill="#0891b2"/><text x="1234" y="1691" class="badge">BEAT</text><text x="1226" y="1714" class="node-title">Filebeat DaemonSet</text><text x="1226" y="1735" class="node-subtitle">container JSON logs</text><text x="1226" y="1756" class="node-detail">noise filters + ECS fields</text></g><g id="elastic"><path d="M 1490 1674 Q 1490 1660 1612.5 1660 Q 1735 1660 1735 1674 L 1735 1771 Q 1735 1785 1612.5 1785 Q 1490 1785 1490 1771 Z" fill="#ffffff" stroke="#0891b2" stroke-width="2" filter="url(#shadow)"/><ellipse cx="1612.5" cy="1674" rx="122.5" ry="14" fill="none" stroke="#0891b2" stroke-width="2"/><rect x="1504" y="1674" width="44" height="25" rx="7" fill="#0891b2"/><text x="1514" y="1691" class="badge">ES</text><text x="1506" y="1714" class="node-title">Elasticsearch</text><text x="1506" y="1735" class="node-subtitle">central log storage</text><text x="1506" y="1756" class="node-detail">data streams + retention</text></g><g id="kibana"><rect x="1770" y="1660" width="245" height="125" rx="18" fill="#ffffff" stroke="#0891b2" stroke-width="2" filter="url(#shadow)"/><rect x="1784" y="1674" width="44" height="25" rx="7" fill="#0891b2"/><text x="1794" y="1691" class="badge">KIB</text><text x="1786" y="1714" class="node-title">Kibana</text><text x="1786" y="1735" class="node-subtitle">Discover + dashboards</text><text x="1786" y="1756" class="node-detail">log.level · trace_id filters</text></g><g id="kiali"><rect x="2050" y="1660" width="245" height="125" rx="18" fill="#ffffff" stroke="#0891b2" stroke-width="2" filter="url(#shadow)"/><rect x="2064" y="1674" width="56" height="25" rx="7" fill="#0891b2"/><text x="2074" y="1691" class="badge">KIALI</text><text x="2066" y="1714" class="node-title">Kiali</text><text x="2066" y="1735" class="node-subtitle">Istio topology</text><text x="2066" y="1756" class="node-detail">Prometheus + Jaeger links</text></g><g id="ops"><polygon points="2330,1660 2486,1660 2510,1684 2510,1785 2330,1785" fill="#ffffff" stroke="#0891b2" stroke-width="2" filter="url(#shadow)"/><path d="M 2486 1660 L 2486 1684 L 2510 1684" fill="none" stroke="#0891b2" stroke-width="2"/><rect x="2344" y="1674" width="44" height="25" rx="7" fill="#0891b2"/><text x="2354" y="1691" class="badge">OPS</text><text x="2346" y="1714" class="node-title">Contracts + delivery</text><text x="2346" y="1735" class="node-subtitle">proto · CI · images</text><text x="2346" y="1756" class="node-detail">Kustomize · k6</text><text x="2346" y="1777" class="node-detail">chaos · backup/PITR</text></g>
</svg>