<svg xmlns="http://www.w3.org/2000/svg" width="2800" height="1850" viewBox="0 0 2800 1850" role="img" aria-labelledby="diagram-title diagram-desc">
  <title id="diagram-title">Automatic City Services · Kubernetes HA topology</title>
  <desc id="diagram-desc">Текущая topology из prod/local-ha Kustomize: реальные replica counts, failover-контуры и отмеченные SPOF</desc>
  <defs><marker id="arrow-http" markerWidth="10" markerHeight="10" refX="8" refY="3" orient="auto" markerUnits="strokeWidth"><path d="M0,0 L0,6 L9,3 z" fill="#111827"/></marker><marker id="arrow-grpc" markerWidth="10" markerHeight="10" refX="8" refY="3" orient="auto" markerUnits="strokeWidth"><path d="M0,0 L0,6 L9,3 z" fill="#334155"/></marker><marker id="arrow-kafka" markerWidth="10" markerHeight="10" refX="8" refY="3" orient="auto" markerUnits="strokeWidth"><path d="M0,0 L0,6 L9,3 z" fill="#7c3aed"/></marker><marker id="arrow-data" markerWidth="10" markerHeight="10" refX="8" refY="3" orient="auto" markerUnits="strokeWidth"><path d="M0,0 L0,6 L9,3 z" fill="#7c3aed"/></marker><marker id="arrow-object" markerWidth="10" markerHeight="10" refX="8" refY="3" orient="auto" markerUnits="strokeWidth"><path d="M0,0 L0,6 L9,3 z" fill="#2563eb"/></marker><marker id="arrow-analytics" markerWidth="10" markerHeight="10" refX="8" refY="3" orient="auto" markerUnits="strokeWidth"><path d="M0,0 L0,6 L9,3 z" fill="#059669"/></marker><marker id="arrow-cache" markerWidth="10" markerHeight="10" refX="8" refY="3" orient="auto" markerUnits="strokeWidth"><path d="M0,0 L0,6 L9,3 z" fill="#d97706"/></marker><marker id="arrow-route" markerWidth="10" markerHeight="10" refX="8" refY="3" orient="auto" markerUnits="strokeWidth"><path d="M0,0 L0,6 L9,3 z" fill="#dc2626"/></marker><marker id="arrow-telemetry" markerWidth="10" markerHeight="10" refX="8" refY="3" orient="auto" markerUnits="strokeWidth"><path d="M0,0 L0,6 L9,3 z" fill="#0891b2"/></marker><marker id="arrow-control" markerWidth="10" markerHeight="10" refX="8" refY="3" orient="auto" markerUnits="strokeWidth"><path d="M0,0 L0,6 L9,3 z" fill="#475569"/></marker><marker id="arrow-backup" markerWidth="10" markerHeight="10" refX="8" refY="3" orient="auto" markerUnits="strokeWidth"><path d="M0,0 L0,6 L9,3 z" fill="#dc2626"/></marker><filter id="shadow" x="-20%" y="-20%" width="140%" height="140%"><feDropShadow dx="0" dy="3" stdDeviation="5" flood-color="#0f172a" flood-opacity="0.09"/></filter></defs>
  <style>
    text{font-family:Inter,"Segoe UI",Arial,sans-serif;fill:#0f172a}
    .diagram-title{font-size:30px;font-weight:700}.diagram-subtitle{font-size:14px;fill:#475569}
    .legend{font-size:12px;fill:#475569;font-weight:600}.group-title{font-size:17px;font-weight:700}
    .badge{font-size:10px;font-weight:700;fill:#fff;letter-spacing:.4px}.status{font-size:10px;font-weight:700}
    .node-title{font-size:14px;font-weight:700}.node-subtitle{font-size:11px;font-weight:600;fill:#475569}.node-detail{font-size:10.5px;fill:#475569}
    .service-go{font-size:9px;font-weight:700;fill:#fff}.service-title{font-size:14px;font-weight:700}.service-subtitle{font-size:10px;fill:#475569}
    .tile-title{font-size:15px;font-weight:700}.tile-subtitle{font-size:11px;fill:#475569}.tile-detail{font-size:10px;fill:#475569}
    .obs-title{font-size:15px;font-weight:700}.obs-subtitle{font-size:11px;fill:#475569}.principle-title{font-size:11px;font-weight:700}
    .bus-title{font-size:19px;font-weight:700}.bus-subtitle{font-size:12px;fill:#475569}
    .legend-item{font-size:11px;fill:#0f172a}
    .edge-label{font-size:9px;fill:#475569;paint-order:stroke;stroke:#f8fafc;stroke-width:4px;stroke-linejoin:round}.edge{pointer-events:none}
  </style>
  <rect width="100%" height="100%" fill="#f8fafc"/>
  <text x="40" y="64" text-anchor="start" class="diagram-title">Automatic City Services · Kubernetes HA topology</text>
  <text x="40" y="94" text-anchor="start" class="diagram-subtitle">Текущая topology из prod/local-ha Kustomize: реальные replica counts, failover-контуры и отмеченные SPOF</text>
  <text x="40" y="138" class="legend" fill="#059669">━━ HTTPS/REST</text>
  <text x="190" y="138" class="legend" fill="#2563eb">━━ gRPC/HTTP2</text>
  <text x="345" y="138" class="legend" fill="#7c3aed">┄┄ Kafka/events</text>
  <text x="510" y="138" class="legend" fill="#7c3aed">━━ data</text>
  <text x="605" y="138" class="legend" fill="#0891b2">┄┄ telemetry/control</text>
  <text x="820" y="138" class="legend" fill="#059669">HA = failover contour</text>
  <text x="1005" y="138" class="legend" fill="#d97706">SPOF = single instance</text>
  <g><rect x="40" y="180" width="600" height="450" rx="24" fill="#f1f5f9" stroke="#94a3b8" stroke-width="2" stroke-dasharray="10 7"/><text x="60" y="214" class="group-title" fill="#0f172a">Kubernetes control plane</text></g><g><rect x="680" y="180" width="1240" height="450" rx="24" fill="#eff6ff" stroke="#93c5fd" stroke-width="2" stroke-dasharray="10 7"/><text x="700" y="214" class="group-title" fill="#0f172a">automatic-system namespace · Istio mesh</text></g><g><rect x="40" y="650" width="1880" height="720" rx="24" fill="#f5f3ff" stroke="#c4b5fd" stroke-width="2" stroke-dasharray="10 7"/><text x="60" y="684" class="group-title" fill="#0f172a">PostgreSQL HA · sidecar.istio.io/inject=false</text></g><g><rect x="1960" y="650" width="800" height="720" rx="24" fill="#fff7ed" stroke="#fdba74" stroke-width="2" stroke-dasharray="10 7"/><text x="1980" y="684" class="group-title" fill="#0f172a">Messaging, cache and stateful engines</text></g><g><rect x="40" y="1420" width="2720" height="380" rx="24" fill="#ecfeff" stroke="#67e8f9" stroke-width="2" stroke-dasharray="10 7"/><text x="60" y="1454" class="group-title" fill="#0f172a">Observability / logging · текущее число реплик</text></g><g class="edge"><path d="M 320 297.5 L 340 297.5 L 340 297.5 L 360 297.5" fill="none" stroke="#111827" stroke-width="2.5"  marker-end="url(#arrow-http)" opacity="0.78"/><text x="345" y="291.5" class="edge-label">HTTPS</text></g><g class="edge"><path d="M 360 297.5 L 360 373.75 L 320 373.75 L 320 450" fill="none" stroke="#111827" stroke-width="2.5"  marker-end="url(#arrow-http)" opacity="0.78"/><text x="368" y="367.75" class="edge-label">tunnel</text></g><g class="edge"><path d="M 320 450 L 527.5 450 L 527.5 305 L 735 305" fill="none" stroke="#111827" stroke-width="2.5"  marker-end="url(#arrow-http)" opacity="0.78"/><text x="532.5" y="371.5" class="edge-label">web</text></g><g class="edge"><path d="M 320 450 L 670 450 L 670 305 L 1020 305" fill="none" stroke="#111827" stroke-width="2.5"  marker-end="url(#arrow-http)" opacity="0.78"/><text x="675" y="371.5" class="edge-label">api</text></g><g class="edge"><path d="M 1320 305 L 1337.5 305 L 1337.5 305 L 1355 305" fill="none" stroke="#334155" stroke-width="2.5"  marker-end="url(#arrow-grpc)" opacity="0.78"/><text x="1342.5" y="299" class="edge-label">gRPC / HTTP2</text></g><g class="edge"><path d="M 735 475 L 662.5 475 L 662.5 450 L 590 450" fill="none" stroke="#475569" stroke-width="2" stroke-dasharray="9 7" marker-end="url(#arrow-control)" opacity="0.78"/><text x="667.5" y="456.5" class="edge-label">xDS / cert rotation</text></g><g class="edge"><path d="M 1355 305 L 1225 305 L 1225 475 L 1095 475" fill="none" stroke="#475569" stroke-width="2" stroke-dasharray="9 7" marker-end="url(#arrow-control)" opacity="0.78"/><text x="1230" y="384" class="edge-label">sidecars</text></g><g class="edge"><path d="M 360 450 L 360 511.25 L 320 511.25 L 320 572.5" fill="none" stroke="#475569" stroke-width="2" stroke-dasharray="9 7" marker-end="url(#arrow-control)" opacity="0.78"/><text x="368" y="505.25" class="edge-label">cluster state</text></g><g class="edge"><path d="M 475 510 L 475 522.5 L 475 522.5 L 475 535" fill="none" stroke="#475569" stroke-width="2" stroke-dasharray="9 7" marker-end="url(#arrow-control)" opacity="0.78"/><text x="483" y="516.5" class="edge-label">schedule</text></g><g class="edge"><path d="M 590 572.5 L 662.5 572.5 L 662.5 475 L 735 475" fill="none" stroke="#475569" stroke-width="2" stroke-dasharray="9 7" marker-end="url(#arrow-control)" opacity="0.78"/><text x="667.5" y="517.75" class="edge-label">pods · CNI · CSI</text></g><g class="edge"><path d="M 475 510 L 672.5 510 L 672.5 735 L 870 735" fill="none" stroke="#475569" stroke-width="2" stroke-dasharray="9 7" marker-end="url(#arrow-control)" opacity="0.78"/><text x="677.5" y="616.5" class="edge-label">Patroni DCS</text></g><g class="edge"><path d="M 590 450 L 890 450 L 890 995 L 1190 995" fill="none" stroke="#475569" stroke-width="2" stroke-dasharray="9 7" marker-end="url(#arrow-control)" opacity="0.78"/><text x="895" y="716.5" class="edge-label">Patroni DCS</text></g><g class="edge"><path d="M 1355 305 L 827.5 305 L 827.5 805 L 300 805" fill="none" stroke="#7c3aed" stroke-width="2.5"  marker-end="url(#arrow-data)" opacity="0.78"/><text x="832.5" y="549" class="edge-label">writes</text></g><g class="edge"><path d="M 1355 305 L 947.5 305 L 947.5 805 L 540 805" fill="none" stroke="#7c3aed" stroke-width="2.5"  marker-end="url(#arrow-data)" opacity="0.78"/><text x="952.5" y="549" class="edge-label">eligible reads</text></g><g class="edge"><path d="M 1355 305 L 827.5 305 L 827.5 980 L 300 980" fill="none" stroke="#7c3aed" stroke-width="2.5"  marker-end="url(#arrow-data)" opacity="0.78"/><text x="832.5" y="636.5" class="edge-label">Ticket writes</text></g><g class="edge"><path d="M 1355 305 L 947.5 305 L 947.5 980 L 540 980" fill="none" stroke="#7c3aed" stroke-width="2.5"  marker-end="url(#arrow-data)" opacity="0.78"/><text x="952.5" y="636.5" class="edge-label">Ticket reads</text></g><g class="edge"><path d="M 300 805 L 450 805 L 450 995 L 600 995" fill="none" stroke="#7c3aed" stroke-width="2.5"  marker-end="url(#arrow-data)" opacity="0.78"/><text x="455" y="894" class="edge-label">primary Service</text></g><g class="edge"><path d="M 540 805 L 540 900 L 600 900 L 600 995" fill="none" stroke="#7c3aed" stroke-width="2.5"  marker-end="url(#arrow-data)" opacity="0.78"/><text x="548" y="894" class="edge-label">replica Service</text></g><g class="edge"><path d="M 300 980 L 745 980 L 745 995 L 1190 995" fill="none" stroke="#7c3aed" stroke-width="2.5"  marker-end="url(#arrow-data)" opacity="0.78"/><text x="750" y="981.5" class="edge-label">coordinator primary</text></g><g class="edge"><path d="M 540 980 L 865 980 L 865 995 L 1190 995" fill="none" stroke="#7c3aed" stroke-width="2.5"  marker-end="url(#arrow-data)" opacity="0.78"/><text x="870" y="981.5" class="edge-label">coordinator replicas</text></g><g class="edge"><path d="M 540 1155 L 540 1075 L 600 1075 L 600 995" fill="none" stroke="#7c3aed" stroke-width="2.5"  marker-end="url(#arrow-data)" opacity="0.78"/><text x="548" y="1069" class="edge-label">direct :5432</text></g><g class="edge"><path d="M 540 1155 L 865 1155 L 865 995 L 1190 995" fill="none" stroke="#7c3aed" stroke-width="2.5"  marker-end="url(#arrow-data)" opacity="0.78"/><text x="870" y="1069" class="edge-label">DDL + distribute</text></g><g class="edge"><path d="M 1140 995 L 870 995 L 870 1307.5 L 600 1307.5" fill="none" stroke="#dc2626" stroke-width="2.5" stroke-dasharray="9 7" marker-end="url(#arrow-backup)" opacity="0.78"/><text x="875" y="1145.25" class="edge-label">WAL / diff</text></g><g class="edge"><path d="M 1530 1255 L 1382.5 1255 L 1382.5 1280 L 1235 1280" fill="none" stroke="#dc2626" stroke-width="2.5" stroke-dasharray="9 7" marker-end="url(#arrow-backup)" opacity="0.78"/><text x="1387.5" y="1261.5" class="edge-label">WAL / diff</text></g><g class="edge"><path d="M 1870 1307.5 L 1940 1307.5 L 1940 1215 L 2010 1215" fill="none" stroke="#dc2626" stroke-width="2.5" stroke-dasharray="9 7" marker-end="url(#arrow-backup)" opacity="0.78"/><text x="1945" y="1255.25" class="edge-label">S3</text></g><g class="edge"><path d="M 1865 305 L 1865 558.75 L 2010 558.75 L 2010 812.5" fill="none" stroke="#7c3aed" stroke-width="2.5" stroke-dasharray="9 7" marker-end="url(#arrow-kafka)" opacity="0.78"/><text x="1873" y="552.75" class="edge-label">outbox / consumers</text></g><g class="edge"><path d="M 1610 365 L 1610 647.5 L 2175 647.5 L 2175 930" fill="none" stroke="#7c3aed" stroke-width="2.5"  marker-end="url(#arrow-data)" opacity="0.78"/><text x="1618" y="641.5" class="edge-label">Location</text></g><g class="edge"><path d="M 1865 305 L 1865 658.75 L 2380 658.75 L 2380 1012.5" fill="none" stroke="#7c3aed" stroke-width="2.5"  marker-end="url(#arrow-data)" opacity="0.78"/><text x="1873" y="652.75" class="edge-label">Gateway / Notify</text></g><g class="edge"><path d="M 1610 365 L 1610 752.5 L 2115 752.5 L 2115 1140" fill="none" stroke="#7c3aed" stroke-width="2.5"  marker-end="url(#arrow-data)" opacity="0.78"/><text x="1618" y="746.5" class="edge-label">File Service</text></g><g class="edge"><path d="M 1610 365 L 1610 752.5 L 2360 752.5 L 2360 1140" fill="none" stroke="#7c3aed" stroke-width="2.5"  marker-end="url(#arrow-data)" opacity="0.78"/><text x="1618" y="746.5" class="edge-label">Analytics</text></g><g class="edge"><path d="M 1865 305 L 1865 760 L 2500 760 L 2500 1215" fill="none" stroke="#111827" stroke-width="2.5"  marker-end="url(#arrow-http)" opacity="0.78"/><text x="1873" y="754" class="edge-label">Routing</text></g><g class="edge"><path d="M 1610 365 L 1610 932.5 L 500 932.5 L 500 1500" fill="none" stroke="#0891b2" stroke-width="2" stroke-dasharray="9 7" marker-end="url(#arrow-telemetry)" opacity="0.78"/><text x="1618" y="926.5" class="edge-label">OTLP</text></g><g class="edge"><path d="M 625 1565 L 642.5 1565 L 642.5 1565 L 660 1565" fill="none" stroke="#0891b2" stroke-width="2" stroke-dasharray="9 7" marker-end="url(#arrow-telemetry)" opacity="0.78"/><text x="647.5" y="1559" class="edge-label">traces</text></g><g class="edge"><path d="M 340 1565 L 642.5 1565 L 642.5 1565 L 945 1565" fill="none" stroke="#0891b2" stroke-width="2" stroke-dasharray="9 7" marker-end="url(#arrow-telemetry)" opacity="0.78"/><text x="647.5" y="1559" class="edge-label">metrics</text></g><g class="edge"><path d="M 1800 1565 L 1640 1565 L 1640 1565 L 1480 1565" fill="none" stroke="#0891b2" stroke-width="2" stroke-dasharray="9 7" marker-end="url(#arrow-telemetry)" opacity="0.78"/><text x="1645" y="1559" class="edge-label">logs</text></g><g class="edge"><path d="M 1480 1565 L 1497.5 1565 L 1497.5 1565 L 1515 1565" fill="none" stroke="#0891b2" stroke-width="2" stroke-dasharray="9 7" marker-end="url(#arrow-telemetry)" opacity="0.78"/><text x="1502.5" y="1559" class="edge-label">search</text></g><g class="edge"><path d="M 340 1565 L 1212.5 1565 L 1212.5 1565 L 2085 1565" fill="none" stroke="#0891b2" stroke-width="2" stroke-dasharray="9 7" marker-end="url(#arrow-telemetry)" opacity="0.78"/><text x="1217.5" y="1559" class="edge-label">mesh metrics</text></g><g id="public"><rect x="90" y="245" width="230" height="105" rx="18" fill="#ffffff" stroke="#059669" stroke-width="2" filter="url(#shadow)"/><rect x="104" y="259" width="64" height="25" rx="7" fill="#059669"/><text x="114" y="276" class="badge">PUBLIC</text><text x="106" y="299" class="node-title">Internet / local browser</text><text x="106" y="320" class="node-subtitle">city + api hosts</text><text x="106" y="341" class="node-detail">HTTPS / HTTP2</text></g><g id="ngrok-dev"><rect x="360" y="245" width="230" height="105" rx="18" fill="#ffffff" stroke="#059669" stroke-width="2" filter="url(#shadow)"/><rect x="374" y="259" width="48" height="25" rx="7" fill="#059669"/><text x="384" y="276" class="badge">EDGE</text><rect x="520" y="259" width="55" height="24" rx="12" fill="#fffbeb" stroke="#d97706"/><text x="547.5" y="275" text-anchor="middle" class="status" fill="#d97706">DEV</text><text x="376" y="299" class="node-title">ngrok agent ×1</text><text x="376" y="320" class="node-subtitle">optional dev tunnel</text><text x="376" y="341" class="node-detail">No inbound node port</text></g><g id="istio-ingress"><polygon points="112,390 298,390 320,412 320,488 298,510 112,510 90,488 90,412" fill="#ffffff" stroke="#059669" stroke-width="2" filter="url(#shadow)"/><rect x="104" y="404" width="72" height="25" rx="7" fill="#059669"/><text x="114" y="421" class="badge">INGRESS</text><rect x="250" y="404" width="55" height="24" rx="12" fill="#fffbeb" stroke="#d97706"/><text x="277.5" y="420" text-anchor="middle" class="status" fill="#d97706">RISK</text><text x="106" y="444" class="node-title">Istio IngressGateway</text><text x="106" y="465" class="node-subtitle">Gateway + VirtualService</text><text x="106" y="486" class="node-detail">replicas/HPA not pinned</text></g><g id="kube-api"><polygon points="382,390 568,390 590,412 590,488 568,510 382,510 360,488 360,412" fill="#ffffff" stroke="#475569" stroke-width="2" filter="url(#shadow)"/><rect x="374" y="404" width="44" height="25" rx="7" fill="#475569"/><text x="384" y="421" class="badge">K8S</text><text x="376" y="444" class="node-title">API Server + scheduler</text><text x="376" y="465" class="node-subtitle">Patroni Kubernetes DCS</text><text x="376" y="486" class="node-detail">role labels + Endpoints</text></g><g id="kube-etcd"><path d="M 90 549 Q 90 535 205 535 Q 320 535 320 549 L 320 596 Q 320 610 205 610 Q 90 610 90 596 Z" fill="#ffffff" stroke="#475569" stroke-width="2" filter="url(#shadow)"/><ellipse cx="205" cy="549" rx="115" ry="14" fill="none" stroke="#475569" stroke-width="2"/><rect x="104" y="549" width="48" height="25" rx="7" fill="#475569"/><text x="114" y="566" class="badge">ETCD</text><text x="106" y="589" class="node-title">Control-plane etcd</text><text x="106" y="610" class="node-subtitle">не Patroni etcd</text></g><g id="worker-pool"><polygon points="378.75,535 571.25,535 590,553.75 590,591.25 571.25,610 378.75,610 360,591.25 360,553.75" fill="#ffffff" stroke="#475569" stroke-width="2" filter="url(#shadow)"/><rect x="374" y="549" width="48" height="25" rx="7" fill="#475569"/><text x="384" y="566" class="badge">NODE</text><text x="376" y="589" class="node-title">Worker pool ≥3</text><text x="376" y="610" class="node-subtitle">failure domains required</text></g><g id="frontend-ha"><rect x="735" y="245" width="250" height="120" rx="18" fill="#ffffff" stroke="#2563eb" stroke-width="2" filter="url(#shadow)"/><rect x="749" y="259" width="44" height="25" rx="7" fill="#2563eb"/><text x="759" y="276" class="badge">WEB</text><rect x="915" y="259" width="55" height="24" rx="12" fill="#fffbeb" stroke="#d97706"/><text x="942.5" y="275" text-anchor="middle" class="status" fill="#d97706">SPOF</text><text x="751" y="299" class="node-title">Frontend Deployment ×1</text><text x="751" y="320" class="node-subtitle">Service :3000</text><text x="751" y="341" class="node-detail">Current SPOF</text></g><g id="gateway-ha"><rect x="1020" y="245" width="300" height="120" rx="18" fill="#ffffff" stroke="#2563eb" stroke-width="2" filter="url(#shadow)"/><rect x="1034" y="259" width="44" height="25" rx="7" fill="#2563eb"/><text x="1044" y="276" class="badge">API</text><rect x="1250" y="259" width="55" height="24" rx="12" fill="#ecfdf5" stroke="#059669"/><text x="1277.5" y="275" text-anchor="middle" class="status" fill="#059669">HA</text><text x="1036" y="299" class="node-title">API Gateway ×2…6</text><text x="1036" y="320" class="node-subtitle">HPA CPU 70% / memory 80%</text><text x="1036" y="341" class="node-detail">PDB + topology spread</text></g><g id="services-ha"><rect x="1355" y="245" width="510" height="120" rx="18" fill="#ffffff" stroke="#2563eb" stroke-width="2" filter="url(#shadow)"/><rect x="1369" y="259" width="48" height="25" rx="7" fill="#2563eb"/><text x="1379" y="276" class="badge">GRPC</text><rect x="1795" y="259" width="55" height="24" rx="12" fill="#fffbeb" stroke="#d97706"/><text x="1822.5" y="275" text-anchor="middle" class="status" fill="#d97706">SPOF</text><text x="1371" y="299" class="node-title">15 backend Deployments ×1</text><text x="1371" y="320" class="node-subtitle">Auth · Ticket · Department · Brigade · Profile · Location · Routing</text><text x="1371" y="341" class="node-detail">Dispatch · File · SLA · Notification · Audit · Analytics · Report · Asset</text></g><g id="envoy"><rect x="735" y="410" width="360" height="130" rx="18" fill="#ffffff" stroke="#0891b2" stroke-width="2" filter="url(#shadow)"/><rect x="749" y="424" width="56" height="25" rx="7" fill="#0891b2"/><text x="759" y="441" class="badge">ENVOY</text><rect x="1025" y="424" width="55" height="24" rx="12" fill="#ecfdf5" stroke="#059669"/><text x="1052.5" y="440" text-anchor="middle" class="status" fill="#059669">HA</text><text x="751" y="464" class="node-title">Envoy sidecars</text><text x="751" y="485" class="node-subtitle">STRICT mTLS inside mesh</text><text x="751" y="506" class="node-detail">HTTP/2, trace propagation</text><text x="751" y="527" class="node-detail">DestinationRule pools / retries</text></g><g id="mesh-policy"><rect x="1130" y="410" width="360" height="130" rx="18" fill="#ffffff" stroke="#0891b2" stroke-width="2" filter="url(#shadow)"/><rect x="1144" y="424" width="64" height="25" rx="7" fill="#0891b2"/><text x="1154" y="441" class="badge">POLICY</text><text x="1146" y="464" class="node-title">NetworkPolicy + Istio policy</text><text x="1146" y="485" class="node-subtitle">default deny + scoped allow</text><text x="1146" y="506" class="node-detail">PeerAuthentication · AuthorizationPolicy</text></g><g id="secrets"><rect x="1525" y="410" width="340" height="130" rx="18" fill="#ffffff" stroke="#0891b2" stroke-width="2" filter="url(#shadow)"/><rect x="1539" y="424" width="64" height="25" rx="7" fill="#0891b2"/><text x="1549" y="441" class="badge">SECRET</text><text x="1541" y="464" class="node-title">ConfigMap / Secret / Jobs</text><text x="1541" y="485" class="node-subtitle">runtime-secrets · JWT keys</text><text x="1541" y="506" class="node-detail">Migration and init Jobs bypass PgBouncer</text></g><g id="pgb-platform-write"><rect x="90" y="740" width="210" height="130" rx="18" fill="#ffffff" stroke="#7c3aed" stroke-width="2" filter="url(#shadow)"/><rect x="104" y="754" width="48" height="25" rx="7" fill="#7c3aed"/><text x="114" y="771" class="badge">POOL</text><rect x="230" y="754" width="55" height="24" rx="12" fill="#ecfdf5" stroke="#059669"/><text x="257.5" y="770" text-anchor="middle" class="status" fill="#059669">HA</text><text x="106" y="794" class="node-title">PgBouncer platform-primary ×2</text><text x="106" y="815" class="node-subtitle">transaction pool :6432</text><text x="106" y="836" class="node-detail">write route</text></g><g id="pgb-platform-read"><rect x="330" y="740" width="210" height="130" rx="18" fill="#ffffff" stroke="#7c3aed" stroke-width="2" filter="url(#shadow)"/><rect x="344" y="754" width="48" height="25" rx="7" fill="#7c3aed"/><text x="354" y="771" class="badge">POOL</text><rect x="470" y="754" width="55" height="24" rx="12" fill="#ecfdf5" stroke="#059669"/><text x="497.5" y="770" text-anchor="middle" class="status" fill="#059669">HA</text><text x="346" y="794" class="node-title">PgBouncer platform-replicas ×2</text><text x="346" y="815" class="node-subtitle">transaction pool :6432</text><text x="346" y="836" class="node-detail">read route</text></g><g id="pgb-ticket-write"><rect x="90" y="915" width="210" height="130" rx="18" fill="#ffffff" stroke="#7c3aed" stroke-width="2" filter="url(#shadow)"/><rect x="104" y="929" width="48" height="25" rx="7" fill="#7c3aed"/><text x="114" y="946" class="badge">POOL</text><rect x="230" y="929" width="55" height="24" rx="12" fill="#ecfdf5" stroke="#059669"/><text x="257.5" y="945" text-anchor="middle" class="status" fill="#059669">HA</text><text x="106" y="969" class="node-title">PgBouncer ticket-primary ×2</text><text x="106" y="990" class="node-subtitle">transaction pool :6432</text><text x="106" y="1011" class="node-detail">coordinator leader</text></g><g id="pgb-ticket-read"><rect x="330" y="915" width="210" height="130" rx="18" fill="#ffffff" stroke="#7c3aed" stroke-width="2" filter="url(#shadow)"/><rect x="344" y="929" width="48" height="25" rx="7" fill="#7c3aed"/><text x="354" y="946" class="badge">POOL</text><rect x="470" y="929" width="55" height="24" rx="12" fill="#ecfdf5" stroke="#059669"/><text x="497.5" y="945" text-anchor="middle" class="status" fill="#059669">HA</text><text x="346" y="969" class="node-title">PgBouncer ticket-replicas ×2</text><text x="346" y="990" class="node-subtitle">transaction pool :6432</text><text x="346" y="1011" class="node-detail">coordinator replicas</text></g><g id="migrations"><rect x="90" y="1090" width="450" height="130" rx="18" fill="#ffffff" stroke="#7c3aed" stroke-width="2" filter="url(#shadow)"/><rect x="104" y="1104" width="44" height="25" rx="7" fill="#7c3aed"/><text x="114" y="1121" class="badge">JOB</text><text x="106" y="1144" class="node-title">Migrator / init / backup Jobs</text><text x="106" y="1165" class="node-subtitle">Direct PostgreSQL :5432</text><text x="106" y="1186" class="node-detail">DDL · Citus distribution · pgBackRest stanza</text><text x="106" y="1207" class="node-detail">Connectivity check before app rollout</text></g><g id="platform-pg"><path d="M 600 749 Q 600 735 870 735 Q 1140 735 1140 749 L 1140 1241 Q 1140 1255 870 1255 Q 600 1255 600 1241 Z" fill="#ffffff" stroke="#7c3aed" stroke-width="2" filter="url(#shadow)"/><ellipse cx="870" cy="749" rx="270" ry="14" fill="none" stroke="#7c3aed" stroke-width="2"/><rect x="614" y="749" width="72" height="25" rx="7" fill="#7c3aed"/><text x="624" y="766" class="badge">PATRONI</text><rect x="1070" y="749" width="55" height="24" rx="12" fill="#ecfdf5" stroke="#059669"/><text x="1097.5" y="765" text-anchor="middle" class="status" fill="#059669">HA</text><text x="616" y="789" class="node-title">postgres-platform StatefulSet ×3</text><text x="616" y="810" class="node-subtitle">1 primary + 2 streaming replicas</text><text x="616" y="831" class="node-detail">Required pod anti-affinity across nodes</text><text x="616" y="852" class="node-detail">Separate DB/owner: auth, department, brigade, profile</text><text x="616" y="873" class="node-detail">location, routing, dispatch, file, sla, notification</text><text x="616" y="894" class="node-detail">audit, report, asset/PostGIS</text><text x="616" y="915" class="node-detail">Patroni failover · PostgreSQL exporter</text><text x="616" y="936" class="node-detail">PVC Retain · pgBackRest WAL archive</text></g><g id="ticket-citus"><path d="M 1190 749 Q 1190 735 1530 735 Q 1870 735 1870 749 L 1870 1241 Q 1870 1255 1530 1255 Q 1190 1255 1190 1241 Z" fill="#ffffff" stroke="#7c3aed" stroke-width="2" filter="url(#shadow)"/><ellipse cx="1530" cy="749" rx="340" ry="14" fill="none" stroke="#7c3aed" stroke-width="2"/><rect x="1204" y="749" width="56" height="25" rx="7" fill="#7c3aed"/><text x="1214" y="766" class="badge">CITUS</text><rect x="1800" y="749" width="55" height="24" rx="12" fill="#ecfdf5" stroke="#059669"/><text x="1827.5" y="765" text-anchor="middle" class="status" fill="#059669">HA</text><text x="1206" y="789" class="node-title">postgres-ticket-citus logical cluster</text><text x="1206" y="810" class="node-subtitle">Citus + Patroni · department_id sharding</text><text x="1206" y="831" class="node-detail">Coordinator availability group ×3: primary + 2 replicas</text><text x="1206" y="852" class="node-detail">Worker group 1 ×2: primary + replica</text><text x="1206" y="873" class="node-detail">Worker group 2 ×2: primary + replica</text><text x="1206" y="894" class="node-detail">Distributed colocated tables: ticket/history/report/outbox</text><text x="1206" y="915" class="node-detail">Reference table: ticket categories</text><text x="1206" y="936" class="node-detail">Preferred anti-affinity · PostgreSQL/Citus exporter</text></g><g id="backup"><polygon points="600,1280 1846,1280 1870,1304 1870,1335 600,1335" fill="#fef2f2" stroke="#dc2626" stroke-width="2" filter="url(#shadow)"/><path d="M 1846 1280 L 1846 1304 L 1870 1304" fill="none" stroke="#dc2626" stroke-width="2"/><rect x="614" y="1294" width="64" height="25" rx="7" fill="#dc2626"/><text x="624" y="1311" class="badge">BACKUP</text><text x="616" y="1334" class="node-title">pgBackRest: WAL archive + differential backup → versioned MinIO postgres-backups</text><text x="616" y="1355" class="node-subtitle">Реплика — не backup; restore/PITR drill обязателен</text></g><g id="kafka-ha"><polygon points="2038,735 2682,735 2710,812.5 2682,890 2038,890 2010,812.5" fill="#ffffff" stroke="#ea580c" stroke-width="2" filter="url(#shadow)"/><rect x="2024" y="749" width="56" height="25" rx="7" fill="#ea580c"/><text x="2034" y="766" class="badge">KAFKA</text><rect x="2640" y="749" width="55" height="24" rx="12" fill="#ecfdf5" stroke="#059669"/><text x="2667.5" y="765" text-anchor="middle" class="status" fill="#059669">HA</text><text x="2026" y="789" class="node-title">Kafka KRaft ×3</text><text x="2026" y="810" class="node-subtitle">3 combined broker/controller nodes</text><text x="2026" y="831" class="node-detail">RF=3 · min ISR=2 · PVC per broker</text><text x="2026" y="852" class="node-detail">Leader election + consumer groups</text></g><g id="redis-location-ha"><path d="M 2010 944 Q 2010 930 2175 930 Q 2340 930 2340 944 L 2340 1081 Q 2340 1095 2175 1095 Q 2010 1095 2010 1081 Z" fill="#ffffff" stroke="#dc2626" stroke-width="2" filter="url(#shadow)"/><ellipse cx="2175" cy="944" rx="165" ry="14" fill="none" stroke="#dc2626" stroke-width="2"/><rect x="2024" y="944" width="56" height="25" rx="7" fill="#dc2626"/><text x="2034" y="961" class="badge">REDIS</text><rect x="2270" y="944" width="55" height="24" rx="12" fill="#ecfdf5" stroke="#059669"/><text x="2297.5" y="960" text-anchor="middle" class="status" fill="#059669">HA</text><text x="2026" y="984" class="node-title">Redis Location</text><text x="2026" y="1005" class="node-subtitle">master + 2 replicas + Sentinel ×3</text><text x="2026" y="1026" class="node-detail">Live positions · Redis Stream</text><text x="2026" y="1047" class="node-detail">Automatic master discovery</text></g><g id="redis-single"><path d="M 2380 944 Q 2380 930 2545 930 Q 2710 930 2710 944 L 2710 1081 Q 2710 1095 2545 1095 Q 2380 1095 2380 1081 Z" fill="#ffffff" stroke="#dc2626" stroke-width="2" filter="url(#shadow)"/><ellipse cx="2545" cy="944" rx="165" ry="14" fill="none" stroke="#dc2626" stroke-width="2"/><rect x="2394" y="944" width="56" height="25" rx="7" fill="#dc2626"/><text x="2404" y="961" class="badge">REDIS</text><rect x="2640" y="944" width="55" height="24" rx="12" fill="#fffbeb" stroke="#d97706"/><text x="2667.5" y="960" text-anchor="middle" class="status" fill="#d97706">SPOF</text><text x="2396" y="984" class="node-title">Gateway + Notification Redis</text><text x="2396" y="1005" class="node-subtitle">два отдельных StatefulSet ×1</text><text x="2396" y="1026" class="node-detail">Rate limit / live notifications</text><text x="2396" y="1047" class="node-detail">Оба контура — SPOF</text></g><g id="minio-ha"><path d="M 2010 1154 Q 2010 1140 2115 1140 Q 2220 1140 2220 1154 L 2220 1276 Q 2220 1290 2115 1290 Q 2010 1290 2010 1276 Z" fill="#ffffff" stroke="#ea580c" stroke-width="2" filter="url(#shadow)"/><ellipse cx="2115" cy="1154" rx="105" ry="14" fill="none" stroke="#ea580c" stroke-width="2"/><rect x="2024" y="1154" width="44" height="25" rx="7" fill="#ea580c"/><text x="2034" y="1171" class="badge">S3</text><rect x="2150" y="1154" width="55" height="24" rx="12" fill="#fffbeb" stroke="#d97706"/><text x="2177.5" y="1170" text-anchor="middle" class="status" fill="#d97706">SPOF</text><text x="2026" y="1194" class="node-title">MinIO ×1</text><text x="2026" y="1215" class="node-subtitle">PVC Retain</text><text x="2026" y="1236" class="node-detail">files + backups</text></g><g id="clickhouse-ha"><path d="M 2255 1154 Q 2255 1140 2360 1140 Q 2465 1140 2465 1154 L 2465 1276 Q 2465 1290 2360 1290 Q 2255 1290 2255 1276 Z" fill="#ffffff" stroke="#ea580c" stroke-width="2" filter="url(#shadow)"/><ellipse cx="2360" cy="1154" rx="105" ry="14" fill="none" stroke="#ea580c" stroke-width="2"/><rect x="2269" y="1154" width="44" height="25" rx="7" fill="#ea580c"/><text x="2279" y="1171" class="badge">CH</text><rect x="2395" y="1154" width="55" height="24" rx="12" fill="#fffbeb" stroke="#d97706"/><text x="2422.5" y="1170" text-anchor="middle" class="status" fill="#d97706">SPOF</text><text x="2271" y="1194" class="node-title">ClickHouse ×1</text><text x="2271" y="1215" class="node-subtitle">analytics</text><text x="2271" y="1236" class="node-detail">PVC</text></g><g id="valhalla-ha"><rect x="2500" y="1140" width="210" height="150" rx="18" fill="#ffffff" stroke="#ea580c" stroke-width="2" filter="url(#shadow)"/><rect x="2514" y="1154" width="44" height="25" rx="7" fill="#ea580c"/><text x="2524" y="1171" class="badge">MAP</text><rect x="2640" y="1154" width="55" height="24" rx="12" fill="#fffbeb" stroke="#d97706"/><text x="2667.5" y="1170" text-anchor="middle" class="status" fill="#d97706">SPOF</text><text x="2516" y="1194" class="node-title">Valhalla ×1</text><text x="2516" y="1215" class="node-subtitle">map routing</text><text x="2516" y="1236" class="node-detail">bootstrap data</text></g><g id="prom-ha"><rect x="90" y="1500" width="250" height="130" rx="18" fill="#ffffff" stroke="#0891b2" stroke-width="2" filter="url(#shadow)"/><rect x="104" y="1514" width="48" height="25" rx="7" fill="#0891b2"/><text x="114" y="1531" class="badge">PROM</text><rect x="270" y="1514" width="55" height="24" rx="12" fill="#fffbeb" stroke="#d97706"/><text x="297.5" y="1530" text-anchor="middle" class="status" fill="#d97706">SPOF</text><text x="106" y="1554" class="node-title">Prometheus ×1</text><text x="106" y="1575" class="node-subtitle">scrape apps/infra</text><text x="106" y="1596" class="node-detail">PVC / retention</text></g><g id="otel-ha"><rect x="375" y="1500" width="250" height="130" rx="18" fill="#ffffff" stroke="#0891b2" stroke-width="2" filter="url(#shadow)"/><rect x="389" y="1514" width="48" height="25" rx="7" fill="#0891b2"/><text x="399" y="1531" class="badge">OTEL</text><rect x="555" y="1514" width="55" height="24" rx="12" fill="#fffbeb" stroke="#d97706"/><text x="582.5" y="1530" text-anchor="middle" class="status" fill="#d97706">SPOF</text><text x="391" y="1554" class="node-title">OTel Collector ×1</text><text x="391" y="1575" class="node-subtitle">OTLP traces</text><text x="391" y="1596" class="node-detail">metrics receivers</text></g><g id="jaeger-ha"><rect x="660" y="1500" width="250" height="130" rx="18" fill="#ffffff" stroke="#0891b2" stroke-width="2" filter="url(#shadow)"/><rect x="674" y="1514" width="56" height="25" rx="7" fill="#0891b2"/><text x="684" y="1531" class="badge">TRACE</text><rect x="840" y="1514" width="55" height="24" rx="12" fill="#fffbeb" stroke="#d97706"/><text x="867.5" y="1530" text-anchor="middle" class="status" fill="#d97706">SPOF</text><text x="676" y="1554" class="node-title">Jaeger ×1</text><text x="676" y="1575" class="node-subtitle">trace storage/UI</text><text x="676" y="1596" class="node-detail">Current SPOF</text></g><g id="grafana-ha"><rect x="945" y="1500" width="250" height="130" rx="18" fill="#ffffff" stroke="#0891b2" stroke-width="2" filter="url(#shadow)"/><rect x="959" y="1514" width="48" height="25" rx="7" fill="#0891b2"/><text x="969" y="1531" class="badge">GRAF</text><rect x="1125" y="1514" width="55" height="24" rx="12" fill="#fffbeb" stroke="#d97706"/><text x="1152.5" y="1530" text-anchor="middle" class="status" fill="#d97706">SPOF</text><text x="961" y="1554" class="node-title">Grafana ×1</text><text x="961" y="1575" class="node-subtitle">provisioned dashboards</text><text x="961" y="1596" class="node-detail">Prometheus/ES/Jaeger</text></g><g id="elastic-ha"><path d="M 1230 1514 Q 1230 1500 1355 1500 Q 1480 1500 1480 1514 L 1480 1616 Q 1480 1630 1355 1630 Q 1230 1630 1230 1616 Z" fill="#ffffff" stroke="#0891b2" stroke-width="2" filter="url(#shadow)"/><ellipse cx="1355" cy="1514" rx="125" ry="14" fill="none" stroke="#0891b2" stroke-width="2"/><rect x="1244" y="1514" width="44" height="25" rx="7" fill="#0891b2"/><text x="1254" y="1531" class="badge">ES</text><rect x="1410" y="1514" width="55" height="24" rx="12" fill="#fffbeb" stroke="#d97706"/><text x="1437.5" y="1530" text-anchor="middle" class="status" fill="#d97706">SPOF</text><text x="1246" y="1554" class="node-title">Elasticsearch ×1</text><text x="1246" y="1575" class="node-subtitle">logs data stream</text><text x="1246" y="1596" class="node-detail">Current SPOF</text></g><g id="kibana-ha"><rect x="1515" y="1500" width="250" height="130" rx="18" fill="#ffffff" stroke="#0891b2" stroke-width="2" filter="url(#shadow)"/><rect x="1529" y="1514" width="44" height="25" rx="7" fill="#0891b2"/><text x="1539" y="1531" class="badge">KIB</text><rect x="1695" y="1514" width="55" height="24" rx="12" fill="#fffbeb" stroke="#d97706"/><text x="1722.5" y="1530" text-anchor="middle" class="status" fill="#d97706">SPOF</text><text x="1531" y="1554" class="node-title">Kibana ×1</text><text x="1531" y="1575" class="node-subtitle">Discover/dashboards</text><text x="1531" y="1596" class="node-detail">Saved objects</text></g><g id="filebeat-ha"><rect x="1800" y="1500" width="250" height="130" rx="18" fill="#ffffff" stroke="#0891b2" stroke-width="2" filter="url(#shadow)"/><rect x="1814" y="1514" width="48" height="25" rx="7" fill="#0891b2"/><text x="1824" y="1531" class="badge">BEAT</text><rect x="1980" y="1514" width="55" height="24" rx="12" fill="#ecfdf5" stroke="#059669"/><text x="2007.5" y="1530" text-anchor="middle" class="status" fill="#059669">HA</text><text x="1816" y="1554" class="node-title">Filebeat DaemonSet</text><text x="1816" y="1575" class="node-subtitle">one pod per K8s node</text><text x="1816" y="1596" class="node-detail">Node-local log shipping</text></g><g id="kiali-ha"><rect x="2085" y="1500" width="250" height="130" rx="18" fill="#ffffff" stroke="#0891b2" stroke-width="2" filter="url(#shadow)"/><rect x="2099" y="1514" width="56" height="25" rx="7" fill="#0891b2"/><text x="2109" y="1531" class="badge">KIALI</text><rect x="2265" y="1514" width="55" height="24" rx="12" fill="#fffbeb" stroke="#d97706"/><text x="2292.5" y="1530" text-anchor="middle" class="status" fill="#d97706">RISK</text><text x="2101" y="1554" class="node-title">Kiali ×1 + Istiod</text><text x="2101" y="1575" class="node-subtitle">Istiod replicas unpinned</text><text x="2101" y="1596" class="node-detail">Prometheus + Jaeger links</text></g><g id="exporters-ha"><rect x="2370" y="1500" width="340" height="130" rx="18" fill="#ffffff" stroke="#0891b2" stroke-width="2" filter="url(#shadow)"/><rect x="2384" y="1514" width="72" height="25" rx="7" fill="#0891b2"/><text x="2394" y="1531" class="badge">METRICS</text><rect x="2635" y="1514" width="60" height="24" rx="12" fill="#fffbeb" stroke="#d97706"/><text x="2665" y="1530" text-anchor="middle" class="status" fill="#d97706">MIXED</text><text x="2386" y="1554" class="node-title">Exporters and agents</text><text x="2386" y="1575" class="node-subtitle">kube-state · node · etcd · PG · PgBouncer</text><text x="2386" y="1596" class="node-detail">Kafka · Redis · MinIO · ClickHouse</text></g><g id="ha-note"><polygon points="90,1670 2686,1670 2710,1694 2710,1755 90,1755" fill="#fffbeb" stroke="#d97706" stroke-width="2" filter="url(#shadow)"/><path d="M 2686 1670 L 2686 1694 L 2710 1694" fill="none" stroke="#d97706" stroke-width="2"/><rect x="104" y="1684" width="64" height="25" rx="7" fill="#d97706"/><text x="114" y="1701" class="badge">STATUS</text><text x="106" y="1724" class="node-title">Фактический HA-статус</text><text x="106" y="1745" class="node-subtitle">Database/messaging core имеет failover при наличии ≥3 failure domains; production app layer пока HA только для API Gateway. Остальные Deployments ×1, ingress без закреплённого replica policy и одиночные stateful engines требуют усиления.</text></g>
</svg>